 <svg version="1.0" xmlns="http://www.w3.org/2000/svg"  width="1089pt" height="879pt" viewBox="0 0 363.000000 293.000000"  preserveAspectRatio="xMidYMid meet">  <g transform="translate(0.000000,293.000000) scale(0.050000,-0.050000)" fill="#2a5065" stroke="none"> <path d="M9 2930 c0 -1617 3 -2825 6 -2685 l6 255 280 0 279 0 0 -250 c0 -153 8 -250 20 -250 12 0 20 97 20 250 l0 250 280 0 280 0 0 -250 c0 -153 8 -250 20 -250 12 0 20 97 20 251 l0 250 273 -5 273 -6 2 -230 c3 -313 40 -313 48 0 l5 240 270 0 269 0 0 -252 c0 -192 6 -249 25 -243 19 6 24 71 19 252 l-5 243 280 0 281 0 0 -250 c0 -153 8 -250 20 -250 12 0 20 97 20 250 l0 250 280 0 280 0 0 -250 c0 -153 8 -250 20 -250 12 0 20 97 20 250 l0 250 280 0 280 0 0 -250 c0 -153 8 -250 20 -250 12 0 20 97 20 250 l0 250 280 0 280 0 0 -250 c0 -153 8 -250 20 -250 12 0 20 97 20 251 l0 250 273 -5 273 -6 2 -238 c1 -172 9 -241 27 -247 19 -6 25 51 25 243 l0 252 270 0 270 0 0 -252 c0 -192 6 -249 25 -243 19 6 24 71 19 252 l-5 243 280 0 281 0 0 -250 c0 -153 8 -250 20 -250 12 0 20 97 20 250 l0 250 280 0 280 0 0 -250 c0 -153 8 -250 20 -250 12 0 20 97 20 250 0 237 2 250 40 250 22 0 40 9 40 20 0 11 -18 20 -40 20 -38 0 -40 13 -40 280 0 267 2 280 40 280 22 0 40 9 40 20 0 11 -18 20 -40 20 -38 0 -40 13 -40 270 0 257 2 270 40 270 22 0 40 9 40 20 0 11 -18 20 -40 20 -38 0 -40 13 -40 280 0 267 2 280 40 280 22 0 40 9 40 20 0 11 -18 20 -40 20 -38 0 -40 13 -40 280 0 267 2 280 40 280 22 0 40 9 40 20 0 11 -18 20 -40 20 -38 0 -40 13 -40 280 0 267 2 280 40 280 22 0 40 9 40 20 0 11 -18 20 -40 20 -38 0 -40 13 -40 280 0 267 2 280 40 280 22 0 40 9 40 20 0 11 -18 20 -40 20 -38 0 -40 13 -40 270 0 257 2 270 40 270 22 0 40 9 40 20 0 11 -18 20 -40 20 -38 0 -40 13 -40 280 0 267 2 280 40 280 22 0 40 9 40 20 0 11 -18 20 -40 20 -38 0 -40 13 -40 280 0 173 -8 280 -20 280 -12 0 -20 -107 -20 -280 l0 -280 -280 0 -280 0 0 280 c0 173 -8 280 -20 280 -12 0 -20 -107 -20 -281 l0 -280 -275 5 -275 6 7 275 c7 243 4 275 -25 275 -28 0 -32 -35 -32 -280 l0 -280 -270 0 -270 0 0 280 c0 239 -4 280 -31 280 -27 0 -30 -39 -28 -275 l3 -275 -272 -6 -272 -5 0 280 c0 174 -8 281 -20 281 -12 0 -20 -107 -20 -280 l0 -280 -280 0 -280 0 0 280 c0 173 -8 280 -20 280 -12 0 -20 -107 -20 -280 l0 -280 -280 0 -280 0 0 280 c0 173 -8 280 -20 280 -12 0 -20 -107 -20 -280 l0 -280 -280 0 -280 0 0 280 c0 173 -8 280 -20 280 -12 0 -20 -107 -20 -280 l0 -280 -278 0 -278 0 11 280 c10 251 8 280 -22 280 -29 0 -33 -33 -33 -280 l0 -280 -270 0 -270 0 0 280 c0 239 -4 280 -31 280 -27 0 -30 -39 -28 -275 l3 -275 -272 -6 -272 -5 0 280 c0 174 -8 281 -20 281 -12 0 -20 -107 -20 -280 l0 -280 -280 0 -280 0 0 280 c0 173 -8 280 -20 280 -12 0 -20 -107 -20 -280 l0 -280 -279 0 -280 0 -6 285 c-3 157 -6 -1038 -6 -2655z m571 2055 l0 -275 -280 0 -280 0 0 275 0 275 280 0 280 0 0 -275z m596 2 l-6 -273 -275 -2 -275 -2 0 275 0 275 281 0 280 0 -5 -273z m591 0 l-3 -273 -272 -2 -272 -2 0 275 0 275 275 0 275 0 -3 -273z m593 -7 l0 -280 -269 5 -269 5 -6 275 -6 275 275 0 275 0 0 -280z m602 15 c2 -146 1 -276 0 -288 -2 -13 6 -30 17 -37 14 -8 21 88 21 289 l0 301 280 0 280 0 0 -300 c0 -187 8 -300 20 -300 12 0 20 113 20 300 l0 300 280 0 280 0 0 -280 0 -280 -273 0 c-344 0 -342 -14 3 -24 l260 -7 6 -64 c8 -85 44 -84 44 0 l0 65 280 -6 280 -6 0 -134 c1 -94 6 -125 20 -104 11 17 20 77 20 135 l0 105 275 0 275 0 0 -270 0 -270 -133 0 c-205 0 -234 -28 -41 -40 l166 -10 4 -274 c4 -258 2 -275 -36 -288 -38 -12 -38 -13 5 -22 39 -8 45 -22 48 -112 l3 -104 12 100 12 100 275 6 275 5 0 -280 0 -281 -200 0 c-120 0 -200 -8 -200 -20 0 -12 80 -20 200 -20 l200 0 0 -281 0 -280 -274 5 -273 6 5 130 c6 188 -28 271 -48 115 -8 -63 -9 -146 -1 -185 l13 -70 -281 0 -281 0 0 125 c0 69 -9 139 -20 155 -13 21 -19 -18 -20 -125 l0 -155 -280 0 -280 0 0 80 c0 44 -9 80 -20 80 -11 0 -20 -36 -20 -80 l0 -80 -280 0 c-184 0 -280 7 -280 21 0 12 -9 16 -20 9 -88 -54 -1 -60 865 -59 487 1 892 -2 901 -7 9 -4 147 -7 305 -5 l289 3 0 -281 0 -281 -245 0 c-172 -1 -236 -7 -215 -21 17 -11 127 -18 250 -16 219 4 220 4 228 -44 l8 -49 13 50 c7 28 24 49 37 48 13 -1 137 -3 274 -5 l250 -3 0 -270 0 -270 -280 0 -280 0 0 75 c-1 56 -6 67 -20 45 -11 -16 -20 -50 -20 -75 0 -45 -3 -45 -280 -45 l-280 0 -3 85 -4 85 -8 -85 -7 -85 -279 0 -279 0 0 55 c0 30 -9 69 -20 85 -14 22 -19 7 -20 -55 l0 -85 -280 0 -280 0 0 80 c0 44 -9 80 -20 80 -11 0 -20 -36 -20 -80 l0 -80 -280 0 -280 0 0 80 c0 44 -9 80 -20 80 -11 0 -20 -36 -20 -80 l0 -80 -280 0 -280 0 0 81 c0 49 -8 76 -20 69 -11 -7 -20 -43 -20 -81 l0 -69 -280 0 -280 0 -2 235 c-1 279 -10 273 -28 -20 l-14 -215 -278 0 -278 0 -3 75 -4 75 -8 -75 -7 -75 -279 0 -279 0 0 55 c0 30 -9 69 -20 85 -14 22 -19 7 -20 -55 l0 -85 -280 0 -280 0 0 270 0 270 260 0 c143 0 267 1 275 1 8 1 20 -19 27 -45 l12 -46 14 50 14 50 274 -4 c269 -4 274 -5 282 -50 8 -46 8 -46 21 4 9 36 29 52 72 58 l59 9 -59 11 -59 12 -1 273 -1 272 212 9 c292 12 357 3 361 -51 l2 -43 9 43 c10 51 170 73 451 63 85 -3 154 2 155 11 0 9 -135 16 -300 14 l-300 -3 0 76 c-1 56 -6 68 -20 46 -11 -16 -20 -50 -20 -75 0 -44 -3 -45 -268 -45 l-268 0 -14 272 c-12 221 -10 276 12 290 24 15 24 21 1 36 -22 14 -25 70 -13 290 l15 272 182 0 c126 1 174 7 153 20 -16 11 -102 20 -190 20 l-160 0 3 275 c2 273 3 275 50 283 l47 8 -48 13 c-48 12 -48 14 -50 286 l-2 275 243 0 c134 0 258 5 275 12 21 8 37 -3 49 -33 l16 -46 12 43 c11 42 23 44 268 48 l257 4 -260 11 -260 11 -6 275 -5 275 280 0 281 0 2 -265z m1794 -8 l-6 -273 -275 -2 -275 -2 0 275 0 275 281 0 280 0 -5 -273z m591 0 l-3 -273 -272 -2 -272 -2 0 275 0 275 275 0 275 0 -3 -273z m593 -2 l0 -275 -269 0 -269 0 -6 275 -6 275 275 0 275 0 0 -275z m600 0 l0 -275 -275 3 -275 3 -6 272 -5 272 280 0 281 0 0 -275z m600 0 l0 -275 -275 3 -275 3 -6 272 -5 272 280 0 281 0 0 -275z m-6560 -595 l0 -268 -280 -6 -280 -6 0 280 0 280 280 -6 280 -6 0 -268z m600 0 l0 -270 -280 0 -280 0 0 270 0 270 280 0 280 0 0 -270z m590 0 l0 -270 -275 0 -275 0 0 270 0 270 275 0 275 0 0 -270z m4170 0 l0 -270 -275 0 -275 0 0 270 0 270 275 0 275 0 0 -270z m600 0 l0 -270 -280 0 -280 0 0 270 0 270 280 0 280 0 0 -270z m600 0 l0 -270 -280 0 -280 0 0 270 0 270 280 0 280 0 0 -270z m-6560 -590 l0 -280 -280 0 -280 0 0 279 0 279 280 1 280 1 0 -280z m596 -5 l5 -275 -280 0 -281 0 0 281 0 280 275 -5 275 -6 6 -275z m592 0 l2 -275 -275 0 -275 0 0 281 0 280 273 -5 272 -6 3 -275z m4172 5 l0 -280 -275 0 -275 0 5 275 c2 151 4 277 5 280 0 3 122 5 270 5 l270 0 0 -280z m600 0 l0 -280 -280 0 -280 0 0 267 c0 322 -29 293 293 293 l267 0 0 -280z m600 0 l0 -280 -280 0 -280 0 0 267 c0 322 -29 293 293 293 l267 0 0 -280z m-6560 -600 l0 -280 -280 0 -280 0 0 280 0 280 280 0 280 0 0 -280z m600 0 l0 -280 -280 0 -280 0 0 280 0 280 280 0 280 0 0 -280z m591 -5 l9 -275 -280 0 -280 0 0 281 0 280 271 -5 270 -6 10 -275z m4769 5 l0 -280 -280 0 -280 0 0 280 0 280 280 0 280 0 0 -280z m600 0 l0 -280 -280 0 -280 0 0 280 0 280 280 0 280 0 0 -280z m-6560 -600 l0 -280 -280 0 -280 0 0 280 0 280 280 0 280 0 0 -280z m600 0 l0 -280 -280 0 -280 0 0 280 0 280 280 0 280 0 0 -280z m591 5 l-11 -275 -270 -6 -270 -5 0 280 0 281 281 0 282 0 -12 -275z m4769 -6 l0 -280 -275 5 -275 6 -6 275 -5 275 280 0 281 0 0 -281z m600 1 l0 -280 -280 0 -280 0 0 280 0 280 280 0 280 0 0 -280z m-6564 -593 l-6 -272 -275 -3 -275 -2 0 275 0 275 281 0 280 0 -5 -273z m600 -2 l-6 -275 -275 0 -275 0 0 275 0 275 281 0 280 0 -5 -275z m592 0 l-3 -275 -272 -6 -273 -5 0 280 0 281 275 0 275 0 -2 -275z m4772 -6 l0 -280 -275 5 -275 6 -6 275 -5 275 280 0 281 0 0 -281z m600 6 l0 -275 -275 3 -275 3 -6 272 -5 272 280 0 281 0 0 -275z m-6560 -596 l0 -269 -280 0 -280 0 0 275 0 275 280 -6 280 -6 0 -269z m6560 1 l0 -270 -280 0 -280 0 0 270 0 270 280 0 280 0 0 -270z m-6560 -590 l0 -280 -280 0 -280 0 0 280 0 280 280 0 280 0 0 -280z m596 -5 l5 -275 -280 0 -281 0 0 281 0 280 275 -5 275 -6 6 -275z m591 0 l3 -275 -275 0 -275 0 0 281 0 280 272 -5 272 -6 3 -275z m593 5 l0 -280 -275 0 -275 0 4 275 c3 151 5 277 5 280 1 3 123 5 271 5 l270 0 0 -280z m600 0 l0 -280 -280 0 -280 0 0 267 c0 322 -29 293 293 293 l267 0 0 -280z m600 0 l0 -280 -280 0 -280 0 0 280 0 280 280 0 280 0 0 -280z m600 0 l0 -280 -280 0 -280 0 0 280 0 280 280 0 280 0 0 -280z m596 -5 l5 -275 -280 0 -281 0 0 281 0 280 275 -5 275 -6 6 -275z m591 0 l3 -275 -275 0 -275 0 0 281 0 280 272 -5 272 -6 3 -275z m593 5 l0 -280 -275 0 -275 0 4 275 c3 151 5 277 5 280 1 3 123 5 271 5 l270 0 0 -280z m600 0 l0 -280 -280 0 -280 0 0 267 c0 322 -29 293 293 293 l267 0 0 -280z m600 0 l0 -280 -280 0 -280 0 0 267 c0 322 -29 293 293 293 l267 0 0 -280z"/> <path d="M2740 4539 c-782 -122 -858 -144 -762 -221 56 -45 57 -149 2 -178 -108 -58 0 -127 235 -150 162 -16 160 -14 105 -85 -58 -73 -54 -212 7 -274 62 -62 335 -82 862 -63 450 16 469 5 60 -37 -392 -39 -968 0 -954 66 8 37 -25 27 -72 -23 -56 -61 -40 -74 90 -74 59 0 107 -3 107 -6 0 -4 10 -58 21 -121 34 -186 36 -184 -259 -213 -310 -30 -312 -31 -273 -124 35 -83 24 -223 -23 -294 -42 -65 -6 -92 149 -110 113 -13 600 -108 835 -163 197 -46 699 -14 1120 71 55 11 230 42 390 69 261 44 294 54 332 102 l43 53 261 -25 261 -25 110 55 c113 58 149 112 101 153 -15 12 -28 30 -28 40 0 9 -50 123 -112 252 -62 130 -114 245 -117 256 -2 11 -56 127 -118 257 -62 131 -113 242 -113 246 0 22 -168 348 -187 364 -35 29 -558 38 -567 11 -10 -30 107 -48 326 -48 227 0 187 49 483 -590 339 -732 392 -850 383 -856 -79 -50 -174 -89 -191 -78 -12 8 -171 311 -353 675 -181 363 -342 671 -358 684 -35 29 -295 38 -313 10 -14 -22 -165 -70 -178 -56 -5 4 2 27 15 51 24 45 19 182 -9 245 -13 30 -4 35 67 35 60 0 82 8 82 30 0 17 -11 30 -25 30 -14 0 -191 22 -395 48 -579 75 -623 76 -1040 11z m1179 -178 c25 -46 27 -240 4 -277 -9 -14 -119 -44 -245 -66 -125 -22 -263 -49 -305 -60 -96 -26 -100 -21 -65 65 28 67 23 144 -17 241 -12 27 3 36 82 47 54 8 187 30 297 50 110 19 206 36 214 37 8 1 24 -15 35 -37z m-1159 -44 c105 -23 233 -46 286 -52 128 -12 193 -234 96 -331 -42 -42 -413 -4 -842 85 -49 10 -133 24 -185 31 -52 7 -95 19 -95 27 0 20 700 -75 934 -127 59 -14 106 39 106 118 0 122 -32 131 -730 222 -276 36 -310 45 -310 74 0 36 521 2 740 -47z m-240 -97 c483 -60 500 -65 500 -149 0 -38 -12 -71 -28 -77 -30 -12 -523 58 -557 79 -12 7 -49 17 -83 21 -231 28 -281 38 -277 51 3 8 5 43 5 77 0 54 6 61 45 52 25 -6 203 -30 395 -54z m1838 -357 c39 -106 6 -143 -127 -143 -44 0 -229 -18 -411 -39 -445 -51 -859 -67 -1160 -43 -279 22 -306 37 -296 162 l6 70 570 4 c396 3 683 16 940 43 466 49 440 52 478 -54z m22 -213 c-19 -23 -66 -29 -197 -27 l-173 2 158 17 c86 9 162 21 168 27 28 28 69 11 44 -19z m79 -85 c118 -257 49 -371 -242 -401 -240 -25 -606 -73 -725 -95 l-71 -13 12 101 c7 56 2 157 -12 224 -28 145 -35 135 90 146 54 5 189 19 299 30 490 52 490 52 490 -226 0 -102 7 -131 29 -131 71 0 90 131 42 291 -40 131 34 192 88 74z m-1625 -116 c65 -27 117 -102 129 -189 8 -59 13 -59 -260 5 -194 45 -208 56 -232 171 l-15 66 157 -14 c86 -7 186 -25 221 -39z m439 -59 c29 -111 35 -287 11 -324 -41 -65 -366 -75 -555 -18 -305 93 -320 102 -258 152 25 21 74 15 275 -35 134 -34 252 -56 262 -50 27 17 0 234 -37 291 l-33 50 126 20 c178 27 180 26 209 -86z m1388 -273 c72 -133 38 -387 -54 -410 -67 -16 -71 -6 -47 103 15 66 15 129 1 206 -28 147 -28 144 28 144 30 0 59 -17 72 -43z m-150 -89 c32 -256 -6 -338 -166 -358 -62 -8 -129 -17 -147 -20 -214 -42 -1043 -151 -1055 -140 -4 4 4 41 17 81 23 69 18 213 -11 321 -14 48 1 52 701 147 242 33 463 63 490 68 153 24 156 22 171 -99z m-2160 -27 c208 -32 431 -64 495 -72 137 -16 154 -42 154 -225 -1 -178 14 -174 -381 -96 -192 39 -422 80 -511 93 l-162 23 29 83 c27 78 25 138 -6 218 -7 19 -10 35 -5 35 4 0 179 -26 387 -59z m756 -106 c33 -120 8 -395 -34 -395 -15 0 -23 55 -23 165 0 91 -7 190 -15 220 -13 46 -10 55 22 55 23 0 43 -18 50 -45z"/> <path d="M3878 3851 c-21 -21 -466 -41 -903 -41 -261 0 -475 -6 -475 -13 0 -50 761 -41 1290 15 343 36 374 43 218 46 -67 1 -125 -2 -130 -7z"/> <path d="M3860 3759 c-236 -33 -725 -56 -1040 -49 -210 6 -301 2 -250 -9 215 -45 1195 -7 1470 58 l70 17 -70 0 c-38 -1 -119 -8 -180 -17z"/> <path d="M3970 3432 l-200 -22 -6 -72 c-8 -97 7 -100 279 -67 125 16 230 29 233 29 4 0 4 34 0 75 -7 90 -12 90 -306 57z m277 -41 c16 -41 -4 -49 -171 -71 -204 -26 -216 -25 -216 17 0 32 25 40 175 57 96 11 181 21 188 23 7 2 18 -10 24 -26z"/> <path d="M3573 3354 c-7 -25 -4 -72 6 -105 16 -52 18 -47 19 46 2 113 -7 133 -25 59z"/> <path d="M4160 2971 l0 -51 -285 -1 c-157 -1 -325 -9 -375 -18 l-90 -16 75 -2 75 -3 0 -110 c0 -60 9 -110 20 -110 11 0 20 50 20 110 l0 110 280 0 280 0 0 -71 c0 -43 8 -66 20 -59 11 7 20 39 20 71 0 59 1 59 120 59 67 0 120 9 120 20 0 11 -53 20 -120 20 -105 0 -120 5 -120 39 0 21 -9 44 -20 51 -11 7 -20 -10 -20 -39z"/> <path d="M3195 2299 c27 -10 106 -11 190 -1 l145 17 -190 1 c-133 1 -176 -4 -145 -17z"/> <path d="M2145 2156 c-11 -14 -30 -57 -41 -96 -10 -38 -43 -132 -72 -207 -28 -76 -52 -141 -52 -145 0 -5 32 -8 70 -8 60 0 70 6 70 48 0 92 132 101 163 12 25 -70 153 -95 130 -25 -141 437 -191 515 -268 421z m95 -217 c0 -22 -12 -39 -27 -39 -42 0 -53 22 -31 63 24 45 58 31 58 -24z"/> <path d="M2537 2147 c-195 -125 -96 -448 136 -447 130 1 208 55 152 106 -32 28 -47 30 -100 10 -117 -44 -209 44 -178 170 17 69 101 107 173 80 68 -26 148 34 104 78 -40 40 -227 42 -287 3z"/> <path d="M3032 2163 c-18 -30 -152 -419 -152 -442 0 -12 27 -21 60 -21 44 0 60 9 60 36 0 98 131 117 166 24 21 -55 136 -94 133 -45 -10 197 -213 536 -267 448z m88 -224 c0 -22 -13 -39 -30 -39 -30 0 -42 61 -17 86 21 21 47 -5 47 -47z"/> <path d="M3348 2152 c-6 -14 -6 -119 -1 -234 l9 -208 130 0 c186 0 294 115 262 281 -11 60 -101 166 -145 170 -169 16 -247 13 -255 -9z m209 -94 c143 -50 88 -258 -68 -258 -30 0 -44 238 -16 267 17 16 10 17 84 -9z"/> <path d="M3820 1935 l0 -235 170 0 c167 0 170 1 170 49 0 46 -8 49 -115 55 -166 9 -190 96 -26 96 94 0 101 3 101 50 0 47 -7 50 -101 50 -86 0 -101 5 -95 35 6 28 28 35 117 35 103 0 109 3 109 50 0 49 -2 50 -165 50 l-165 0 0 -235z"/> <path d="M4220 1939 l0 -242 54 7 c53 6 55 10 49 106 -7 115 19 107 63 -20 25 -72 35 -80 94 -80 59 0 69 8 94 80 43 127 66 131 66 13 0 -102 2 -105 52 -99 l53 6 0 230 c0 229 0 230 -49 236 -62 8 -77 -12 -147 -192 -64 -166 -74 -165 -148 26 -59 150 -74 170 -133 170 -48 0 -48 -1 -48 -241z"/> <path d="M4838 2176 c-1 -3 -4 -112 -6 -241 l-4 -235 57 0 56 0 -5 235 c-6 227 -8 235 -51 241 -25 4 -46 4 -47 0z"/> <path d="M4995 2168 c-7 -7 20 -61 59 -120 l71 -108 -49 -75 c-105 -159 -106 -165 -29 -165 57 0 72 10 93 60 37 88 55 90 88 11 26 -62 39 -71 101 -71 87 0 87 2 1 120 -86 117 -86 123 0 239 75 103 73 121 -14 121 -47 0 -63 -13 -87 -70 -16 -38 -33 -70 -37 -70 -5 0 -27 32 -49 70 -39 66 -112 94 -148 58z"/> <path d="M1160 1440 c0 -98 1 -100 60 -100 33 0 60 9 60 20 0 11 -18 20 -40 20 -22 0 -40 9 -40 20 0 11 18 20 40 20 22 0 40 9 40 20 0 11 -18 20 -40 20 -22 0 -40 9 -40 20 0 11 18 20 40 20 22 0 40 9 40 20 0 11 -27 20 -60 20 -59 0 -60 -2 -60 -100z"/> <path d="M1349 1491 c-24 -92 5 -154 67 -147 32 3 56 20 60 41 8 40 -47 49 -63 10 -5 -14 -10 7 -10 45 0 39 5 59 10 45 16 -39 71 -30 63 10 -11 61 -112 58 -127 -4z"/> <path d="M1754 1525 c-4 -8 -4 -54 1 -101 14 -133 115 -120 115 14 0 119 -45 133 -55 18 l-8 -86 -4 85 c-3 76 -27 111 -49 70z"/> <path d="M1956 1516 c-8 -22 -7 -67 2 -162 8 -76 112 4 112 86 0 91 -88 150 -114 76z"/> <path d="M2158 1531 c-40 -40 10 -191 64 -191 32 0 58 9 58 20 0 11 -18 20 -40 20 -22 0 -40 9 -40 20 0 11 14 20 30 20 17 0 30 9 30 20 0 11 -13 20 -30 20 -16 0 -30 9 -30 20 0 11 18 20 40 20 22 0 40 9 40 20 0 19 -104 29 -122 11z"/> <path d="M2464 1445 c6 -88 116 -170 116 -86 0 11 -13 21 -30 21 -22 0 -30 22 -30 80 0 59 -8 80 -31 80 -25 0 -30 -20 -25 -95z"/> <path d="M2664 1445 c6 -88 116 -170 116 -86 0 11 -13 21 -30 21 -16 0 -30 9 -30 20 0 11 14 20 30 20 17 0 30 9 30 20 0 11 -13 20 -30 20 -16 0 -30 9 -30 20 0 11 14 20 30 20 17 0 30 9 30 20 0 11 -27 20 -61 20 -61 0 -61 -1 -55 -95z"/> <path d="M3260 1440 c0 -55 9 -100 20 -100 11 0 20 16 21 35 0 33 1 33 21 0 36 -62 58 -37 58 65 0 96 -39 147 -41 55 l-2 -45 -21 45 c-35 73 -56 52 -56 -55z"/> <path d="M3470 1440 c0 -67 8 -100 25 -100 17 0 25 33 25 100 0 67 -8 100 -25 100 -17 0 -25 -33 -25 -100z"/> <path d="M3614 1528 c-22 -22 -17 -188 6 -188 11 0 21 20 21 45 l2 45 21 -45 c35 -73 56 -52 56 55 0 55 -9 100 -20 100 -11 0 -20 -15 -20 -34 0 -31 -2 -31 -26 1 -14 20 -32 29 -40 21z"/> <path d="M4120 1440 c0 -82 6 -100 35 -100 29 0 35 18 35 100 0 82 -6 100 -35 100 -29 0 -35 -18 -35 -100z"/> <path d="M4270 1515 c-26 -79 2 -165 56 -171 52 -6 54 -4 54 95 0 100 -82 157 -110 76z"/> <path d="M4580 1465 c1 -83 35 -154 53 -109 8 19 18 20 37 4 33 -28 44 -9 52 84 7 80 -13 122 -34 69 -15 -41 -68 -43 -68 -3 0 17 -9 30 -20 30 -11 0 -20 -34 -20 -75z"/> <path d="M4808 1512 c-29 -75 1 -162 57 -168 54 -6 55 -4 55 95 0 103 -80 155 -112 73z"/> <path d="M5180 1520 c0 -11 9 -20 20 -20 11 0 20 -36 20 -80 0 -44 9 -80 20 -80 11 0 20 36 20 80 0 44 9 80 20 80 11 0 20 9 20 20 0 11 -27 20 -60 20 -33 0 -60 -9 -60 -20z"/> <path d="M5360 1440 c0 -105 29 -132 59 -55 l18 45 2 -45 c2 -92 41 -41 41 55 0 96 -39 147 -41 55 l-2 -45 -18 45 c-30 77 -59 50 -59 -55z"/> <path d="M5680 1443 l0 -97 75 5 c74 4 75 5 75 90 0 51 -10 89 -25 94 -15 5 -25 -9 -25 -33 0 -53 -32 -55 -46 -2 -20 77 -54 41 -54 -57z"/> <path d="M5908 1490 c-21 -84 6 -150 62 -150 56 0 83 66 62 150 -9 36 -26 50 -62 50 -36 0 -53 -14 -62 -50z"/> <path d="M6304 1445 c6 -88 116 -170 116 -86 0 11 -13 21 -30 21 -16 0 -30 9 -30 20 0 11 14 20 30 20 17 0 30 9 30 20 0 11 -13 20 -30 20 -16 0 -30 9 -30 20 0 11 14 20 30 20 17 0 30 9 30 20 0 11 -27 20 -61 20 -61 0 -61 -1 -55 -95z"/> <path d="M960 1430 c0 -89 2 -92 55 -86 50 5 55 14 55 86 0 72 -5 81 -55 86 -53 6 -55 3 -55 -86z"/> <path d="M1569 1466 c-7 -31 -15 -66 -19 -79 -11 -36 14 -49 45 -23 22 18 32 17 45 -5 30 -48 45 -5 27 75 -23 95 -80 114 -98 32z"/> <path d="M2870 1439 c-15 -89 0 -125 33 -78 15 22 23 23 30 4 16 -40 71 -31 59 10 -5 19 -16 60 -23 90 -21 89 -83 72 -99 -26z"/> <path d="M3060 1434 c0 -83 3 -88 57 -90 86 -2 84 162 -2 172 -53 6 -55 3 -55 -82z"/> <path d="M3808 1492 c-27 -70 1 -142 57 -148 53 -6 55 -3 55 85 0 94 -82 140 -112 63z"/> <path d="M5000 1434 c0 -83 3 -88 58 -90 87 -2 84 162 -3 172 -53 6 -55 3 -55 -82z"/> <path d="M6108 1492 c-26 -68 1 -138 55 -143 42 -5 52 3 52 38 1 23 3 52 5 63 11 49 -4 70 -51 70 -27 0 -55 -13 -61 -28z"/> </g> </svg> 